# xmcd
#
# Track frame offsets:
#	150
#	15007
#	34817
#	52852
#	70560
#	89007
#	105897
#	122345
#	141172
#	167882
#	190287
#	208255
#	230380
#
# Disc length: 3317 seconds
#
# Revision: 0
# Processed by: cddbd v1.5.2PL0 Copyright (c) Steve Scherf et al.
# Submitted via: dBpowerAMP V4.0
#
DISCID=a00cf30d
DTITLE=Brian Smith - Unforgettable Sax
DYEAR=1991
DGENRE=Blues
TTITLE0=Unforgettable
TTITLE1=On the Beach
TTITLE2=We're in this Love Together
TTITLE3=Round Midnight
TTITLE4=Your Latest Trick-Smooth Operator
TTITLE5=Rendevous Waltz
TTITLE6=I've Got a Crush On You
TTITLE7=Everything I Do(I do it for You)
TTITLE8=Winelight
TTITLE9=As Time Goes By
TTITLE10=Tomorrow(Better You, Better me)
TTITLE11=What are you doing for the rest of your Life
TTITLE12=Ole Devil Called Love
EXTD=
EXTT0=
EXTT1=
EXTT2=
EXTT3=
EXTT4=
EXTT5=
EXTT6=
EXTT7=
EXTT8=
EXTT9=
EXTT10=
EXTT11=
EXTT12=
PLAYORDER=
